<svg xmlns="http://www.w3.org/2000/svg" xmlns:xlink="http://www.w3.org/1999/xlink" width="700.864" height="493.635" viewBox="0 0 700.864 493.635"><defs><linearGradient id="a" x1="0.5" y1="1" x2="0.5" gradientUnits="objectBoundingBox"><stop offset="0" stop-color="#e3eeff" stop-opacity="0"/><stop offset="1" stop-color="#e3eeff"/></linearGradient></defs><g transform="translate(-620.07 -456.05)"><path d="M120.7.36h62.125L82.715-153.358h54.67v50.766H195.6v-50.766H227.91v-36.211H195.6V-242.82h-58.22v53.251H12.07v22.72Zm202-4.97q19.525,7.1,44.552,7.1T411.8-4.433q19.525-6.923,31.773-18.46a95.435,95.435,0,0,0,20.235-27.868A130.123,130.123,0,0,0,474.99-84.309a202.371,202.371,0,0,0,3.195-36.921,202.37,202.37,0,0,0-3.195-36.921A130.123,130.123,0,0,0,463.807-191.7a95.434,95.434,0,0,0-20.235-27.868Q431.325-231.1,411.8-238.027t-44.552-6.923q-25.027,0-44.552,6.923t-31.773,18.46A95.434,95.434,0,0,0,270.688-191.7a130.122,130.122,0,0,0-11.182,33.548,202.367,202.367,0,0,0-3.2,36.921,202.368,202.368,0,0,0,3.2,36.921,130.119,130.119,0,0,0,11.182,33.548,95.435,95.435,0,0,0,20.235,27.868Q303.17-11.355,322.7-4.61ZM406.83-56.8q-12.78,23.075-39.583,23.075t-39.76-22.9q-12.958-22.9-12.957-64.789t12.957-64.611q12.958-22.72,39.76-22.72t39.76,22.72q12.958,22.72,12.958,64.611T406.83-56.8Zm127.8-3.55L514.04-28.4a225.57,225.57,0,0,0,39.227,19.17Q572.615-2.125,597.82.36a145.943,145.943,0,0,0,17.395,1.065q20.59,0,37.009-5.5t26.062-14.378a62.184,62.184,0,0,0,14.644-19.7,52.4,52.4,0,0,0,5-22.188q0-27.336-23.219-45.441,17.112-9.94,25.668-24.5a59.366,59.366,0,0,0,8.556-30.531,68.081,68.081,0,0,0-7.144-30,90.8,90.8,0,0,0-20.36-26.981q-13.215-12.248-34.391-19.7T600.3-244.95q-34.79,0-57.155,5.916T501.97-215.19l20.945,27.042q19.525-13.49,35.145-17.04t42.245-3.55q24.85,0,37.63,11.133t12.78,31.984q0,16.963-11.537,26.329t-33.193,9.366h-59.64v36.211H607.4a33.908,33.908,0,0,1,22.72,8.165,25.9,25.9,0,0,1,9.585,20.59q0,13.845-6.568,21.655T609.89-35.5h-6.035Q569.775-38.336,534.63-60.346Z" transform="translate(609.999 947.195)" fill="url(#a)"/><path d="M120.7-242.82h62.125L82.715-89.105h54.67V-139.87H195.6v50.765H227.91V-52.9H195.6V.355h-58.22V-52.9H12.07v-22.72Zm202,4.97q19.525-7.1,44.552-7.1t44.552,6.923q19.525,6.923,31.773,18.46A95.433,95.433,0,0,1,463.807-191.7a130.118,130.118,0,0,1,11.183,33.548,202.362,202.362,0,0,1,3.195,36.92,202.362,202.362,0,0,1-3.195,36.92,130.118,130.118,0,0,1-11.183,33.548A95.433,95.433,0,0,1,443.573-22.9Q431.325-11.36,411.8-4.437T367.247,2.485q-25.027,0-44.552-6.923T290.922-22.9a95.433,95.433,0,0,1-20.235-27.868,130.117,130.117,0,0,1-11.182-33.548,202.359,202.359,0,0,1-3.2-36.92,202.36,202.36,0,0,1,3.2-36.92A130.115,130.115,0,0,1,270.688-191.7a95.433,95.433,0,0,1,20.235-27.868Q303.17-231.1,322.7-237.85Zm84.135,52.185q-12.78-23.075-39.583-23.075t-39.76,22.9q-12.958,22.9-12.957,64.788t12.957,64.61q12.958,22.72,39.76,22.72t39.76-22.72q12.958-22.72,12.958-64.61T406.83-185.665Zm127.8,3.55-20.59-31.95a225.572,225.572,0,0,1,39.227-19.17q19.348-7.1,44.553-9.585a145.948,145.948,0,0,1,17.395-1.065q20.59,0,37.009,5.5t26.062,14.377a62.183,62.183,0,0,1,14.644,19.7,52.4,52.4,0,0,1,5,22.188q0,27.335-23.219,45.44,17.112,9.94,25.668,24.495a59.364,59.364,0,0,1,8.556,30.53,68.079,68.079,0,0,1-7.144,30,90.8,90.8,0,0,1-20.36,26.98Q668.215-12.425,647.04-4.97T600.3,2.485q-34.79,0-57.155-5.916T501.97-27.274l20.945-27.041q19.525,13.49,35.145,17.04t42.245,3.55q24.85,0,37.63-11.133t12.78-31.983q0-16.962-11.537-26.328t-33.193-9.366h-59.64v-36.21H607.4a33.909,33.909,0,0,0,22.72-8.165,25.9,25.9,0,0,0,9.585-20.59q0-13.845-6.568-21.655t-23.253-7.81h-6.035Q569.775-204.125,534.63-182.115Z" transform="translate(610 703)" fill="#e3eeff" stroke="#0066f9" stroke-width="4"/></g></svg>