<svg xmlns="http://www.w3.org/2000/svg" xmlns:xlink="http://www.w3.org/1999/xlink" width="720.279" height="498.981" viewBox="0 0 720.279 498.981"><defs><linearGradient id="a" x1="0.5" x2="0.5" y2="1" gradientUnits="objectBoundingBox"><stop offset="0" stop-color="#e3eeff"/><stop offset="1" stop-color="#e3eeff" stop-opacity="0"/></linearGradient></defs><g transform="translate(-619.546 -456.05)"><path d="M48.635-.71H204.48V-36.92H102.24L95.5-91.59a173.543,173.543,0,0,0,28.4,2.84q45.795,0,70.467-20.235t24.673-51.475q0-36.565-28.577-60.527t-79.7-23.962q-30.885,0-50.765,6.035T12.07-215.485L33.015-188.86q19.17-11.36,36.033-15.62t41.712-4.26q23.785,0,36.92,13.313t13.135,34.967q0,16.33-9.408,25.915T123.9-124.96a96.532,96.532,0,0,1-25.027-2.84,154.322,154.322,0,0,1-23.608-8.875L32.305-131.35Zm269.09-3.55q19.525,7.1,44.552,7.1T406.83-4.083q19.525-6.923,31.772-18.46A95.433,95.433,0,0,0,458.837-50.41,130.116,130.116,0,0,0,470.02-83.958a202.365,202.365,0,0,0,3.195-36.92,202.362,202.362,0,0,0-3.195-36.92,130.115,130.115,0,0,0-11.183-33.548A95.433,95.433,0,0,0,438.6-219.213q-12.248-11.537-31.772-18.46T362.277-244.6q-25.027,0-44.552,6.922t-31.773,18.46a95.433,95.433,0,0,0-20.235,27.867A130.114,130.114,0,0,0,254.535-157.8a202.359,202.359,0,0,0-3.2,36.92,202.36,202.36,0,0,0,3.2,36.92A130.115,130.115,0,0,0,265.717-50.41a95.433,95.433,0,0,0,20.235,27.868Q298.2-11.005,317.725-4.26ZM401.86-56.445Q389.08-33.37,362.277-33.37t-39.76-22.9q-12.958-22.9-12.958-64.787t12.958-64.61q12.957-22.72,39.76-22.72t39.76,22.72q12.958,22.72,12.957,64.61T401.86-56.445ZM571.905-4.26q19.525,7.1,44.552,7.1T661.01-4.083q19.525-6.923,31.773-18.46A95.435,95.435,0,0,0,713.018-50.41,130.116,130.116,0,0,0,724.2-83.958a202.36,202.36,0,0,0,3.2-36.92,202.359,202.359,0,0,0-3.2-36.92,130.115,130.115,0,0,0-11.182-33.548,95.434,95.434,0,0,0-20.235-27.867q-12.247-11.537-31.773-18.46T616.458-244.6q-25.027,0-44.552,6.922t-31.773,18.46A95.434,95.434,0,0,0,519.9-191.345,130.115,130.115,0,0,0,508.715-157.8a202.362,202.362,0,0,0-3.195,36.92,202.362,202.362,0,0,0,3.195,36.92A130.116,130.116,0,0,0,519.9-50.41a95.435,95.435,0,0,0,20.235,27.868Q552.38-11.005,571.905-4.26ZM656.04-56.445Q643.26-33.37,616.458-33.37t-39.76-22.9q-12.958-22.9-12.958-64.787t12.958-64.61q12.958-22.72,39.76-22.72t39.76,22.72q12.958,22.72,12.958,64.61T656.04-56.445Z" transform="translate(610.43 952.191)" fill="url(#a)"/><path d="M48.635-241.4H204.48v36.21H102.24L95.5-150.52a173.541,173.541,0,0,1,28.4-2.84q45.795,0,70.467,20.235T219.035-81.65q0,36.565-28.577,60.528T110.76,2.84Q79.875,2.84,60-3.2T12.07-26.625L33.015-53.25q19.17,11.36,36.033,15.62t41.712,4.26q23.785,0,36.92-13.312T160.815-81.65q0-16.33-9.408-25.915T123.9-117.15a96.532,96.532,0,0,0-25.027,2.84,154.326,154.326,0,0,0-23.608,8.875L32.305-110.76Zm269.09,3.55q19.525-7.1,44.552-7.1t44.553,6.923q19.525,6.923,31.772,18.46A95.433,95.433,0,0,1,458.837-191.7a130.116,130.116,0,0,1,11.183,33.548,202.365,202.365,0,0,1,3.195,36.92,202.362,202.362,0,0,1-3.195,36.92,130.116,130.116,0,0,1-11.183,33.548A95.433,95.433,0,0,1,438.6-22.9Q426.355-11.36,406.83-4.437T362.277,2.485q-25.027,0-44.552-6.923T285.952-22.9a95.433,95.433,0,0,1-20.235-27.868,130.114,130.114,0,0,1-11.182-33.548,202.359,202.359,0,0,1-3.2-36.92,202.36,202.36,0,0,1,3.2-36.92A130.115,130.115,0,0,1,265.717-191.7a95.433,95.433,0,0,1,20.235-27.868Q298.2-231.1,317.725-237.85Zm84.135,52.185q-12.78-23.075-39.582-23.075t-39.76,22.9q-12.958,22.9-12.958,64.788t12.958,64.61q12.957,22.72,39.76,22.72t39.76-22.72q12.958-22.72,12.957-64.61T401.86-185.665ZM571.905-237.85q19.525-7.1,44.552-7.1t44.552,6.923q19.525,6.923,31.773,18.46A95.435,95.435,0,0,1,713.018-191.7,130.116,130.116,0,0,1,724.2-158.153a202.36,202.36,0,0,1,3.2,36.92,202.359,202.359,0,0,1-3.2,36.92,130.116,130.116,0,0,1-11.182,33.548A95.434,95.434,0,0,1,692.783-22.9Q680.535-11.36,661.01-4.437T616.458,2.485q-25.027,0-44.552-6.923T540.133-22.9A95.434,95.434,0,0,1,519.9-50.765a130.116,130.116,0,0,1-11.183-33.548,202.362,202.362,0,0,1-3.195-36.92,202.362,202.362,0,0,1,3.195-36.92A130.116,130.116,0,0,1,519.9-191.7a95.435,95.435,0,0,1,20.235-27.868Q552.38-231.1,571.905-237.85Zm84.135,52.185q-12.78-23.075-39.583-23.075t-39.76,22.9q-12.958,22.9-12.958,64.788T576.7-56.445q12.958,22.72,39.76,22.72t39.76-22.72q12.958-22.72,12.958-64.61T656.04-185.665Z" transform="translate(610.43 703)" fill="#e3eeff" stroke="#0066f9" stroke-width="4"/></g></svg>